<svg width="1024" height="1024" viewBox="0 0 1024 1024" fill="none" xmlns="http://www.w3.org/2000/svg">
<path fill-rule="evenodd" clip-rule="evenodd" d="M649.731 791.141C649.731 791.141 715.307 875.871 813.611 949.838C846.602 974.622 786.943 1030.82 758.69 1011C401.026 759.868 431.631 252.177 431.631 252.177C431.631 252.177 233.293 576.616 491.021 898.225L489.064 897.898C412.699 885.157 268.664 861.126 197.888 646.899C100.931 353.928 408.535 -34.3201 425.335 24.3447C465.403 163.96 562.746 228.882 655.174 290.527C729.122 339.848 799.923 387.069 835.729 468.765C881.002 572.059 791.713 654.456 716.131 724.203C690.49 747.864 666.427 770.07 649.731 791.141ZM598.552 614.347C625.434 659.216 766.825 525.529 706.081 468.765C653.423 419.555 544.786 433.697 544.786 433.697C544.786 433.697 540.905 518.13 598.552 614.347Z" fill="#E4DFB8"/>
</svg>
